<svg width="38" height="38" viewBox="0 0 38 38" fill="none" xmlns="http://www.w3.org/2000/svg">
<path d="M18.5748 37.9458C17.8701 37.7832 17.2196 37.5663 16.7859 36.97C16.5149 36.5906 16.298 36.1027 16.0812 35.669C15.9728 35.4522 15.9186 35.3438 15.7017 35.2896C14.2923 35.0185 12.8829 34.5307 11.5819 33.8802C9.52199 32.8502 7.73312 31.4408 6.2695 29.6519C6.10687 29.4351 5.94425 29.4351 5.72741 29.4893C4.37221 29.9772 2.90858 29.3809 2.20387 28.1341C1.49917 26.8331 1.77021 25.2611 2.96279 24.3937C3.17962 24.2311 3.23383 24.0685 3.12542 23.7974C2.14967 20.5991 2.14967 17.3466 3.12542 14.1484C3.17962 13.9315 3.17962 13.7689 2.96279 13.6063C1.77021 12.7389 1.44496 11.1669 2.14967 9.86591C2.85437 8.56491 4.318 8.02282 5.72741 8.5107C5.99845 8.61911 6.10687 8.5107 6.2695 8.34807C7.73312 6.5592 9.52199 5.14979 11.5819 4.11983C12.8287 3.46933 14.1839 3.03566 15.5391 2.76462C15.8644 2.71041 16.0812 2.602 16.1896 2.16833C16.4064 0.867332 17.6532 0 19.0084 0C20.3636 0 21.5562 0.975749 21.8273 2.27675C21.8815 2.602 22.0441 2.71041 22.3151 2.76462C24.5377 3.19829 26.5434 4.06562 28.3865 5.36662C29.6333 6.23395 30.7174 7.2097 31.639 8.34807C31.8016 8.56491 31.9642 8.61911 32.2353 8.5107C33.5363 8.02282 35.0541 8.61912 35.7588 9.8117C36.4635 11.1127 36.1925 12.6847 35.0541 13.5521C34.8373 13.7147 34.783 13.8773 34.8373 14.1484C35.813 17.3466 35.813 20.5991 34.8373 23.7974C34.783 24.0143 34.783 24.1769 34.9999 24.3395C36.084 25.1526 36.4635 26.6705 35.9214 27.9173C35.3251 29.2183 33.9157 29.9772 32.6147 29.5977C32.0184 29.4351 31.7474 29.5977 31.3679 30.0314C28.9828 32.7418 25.9471 34.4765 22.4236 35.2354C22.0983 35.2896 21.8815 35.4522 21.8273 35.8317C21.502 36.97 20.7431 37.6205 19.6589 37.9458C19.5505 37.9458 19.4963 38 19.3879 38C19.0626 37.9458 18.8458 37.9458 18.5748 37.9458ZM18.9542 10.679C14.4007 10.679 10.6604 14.4194 10.6604 18.9729C10.6604 23.5264 14.4007 27.2668 18.9542 27.2668C23.5077 27.2668 27.2481 23.5264 27.2481 18.9729C27.2481 14.4194 23.5077 10.679 18.9542 10.679ZM16.1354 3.84879C12.395 4.55349 9.35937 6.39658 6.9742 9.32382C7.6247 10.1369 7.84154 11.0043 7.6247 11.98C7.6247 12.0884 7.73312 12.1969 7.78733 12.2511C8.49203 12.6305 9.19674 13.01 9.90145 13.3894C10.2267 13.5521 10.5519 13.7689 10.8772 13.9315C12.8287 11.0585 15.4849 9.48645 18.9542 9.48645C22.4236 9.48645 25.0256 11.1127 26.9771 13.9315C27.8986 13.4437 28.7659 12.9558 29.6333 12.4679C30.0669 12.2511 30.338 12.0342 30.2296 11.4379C30.0669 10.6248 30.3922 9.92011 30.9343 9.26962C28.5491 6.34237 25.5134 4.49929 21.7731 3.79458C21.3936 4.93295 20.6347 5.58345 19.4963 5.85449C19.4963 6.66762 19.4963 7.48074 19.4963 8.23966C19.1169 8.23966 18.7374 8.23966 18.3037 8.23966C18.3037 7.42653 18.3037 6.61341 18.3037 5.85449C17.2738 5.58345 16.5149 4.93295 16.1354 3.84879ZM6.9742 28.622C9.41358 31.5492 12.395 33.3923 16.1354 34.097C16.5149 33.0128 17.2738 32.3081 18.4121 32.0371C18.4121 31.224 18.4121 30.4108 18.4121 29.6519C18.8458 29.6519 19.1711 29.6519 19.6047 29.6519C19.6047 30.465 19.6047 31.2782 19.6047 32.0371C20.7431 32.3081 21.4478 33.0128 21.8273 34.097C25.5676 33.3381 28.6033 31.5492 30.9885 28.622C30.2838 27.5378 30.2296 27.2126 30.338 25.9658C30.338 25.8573 30.2838 25.7489 30.2296 25.6947C29.1996 25.0984 28.1154 24.5563 27.0313 23.9601C25.0798 26.8331 22.4236 28.4051 18.9542 28.4051C15.4849 28.4051 12.8287 26.7789 10.8772 23.9601C9.79303 24.5563 8.76308 25.0984 7.73312 25.6947C7.67891 25.7489 7.57049 25.8573 7.6247 25.9658C7.84154 26.9957 7.57049 27.8631 6.9742 28.622ZM10.3351 22.9301C9.19674 20.2739 9.19674 17.6177 10.3351 14.9615C9.19674 14.3652 8.11258 13.7147 6.9742 13.1184C6.21529 13.9315 5.34795 14.2568 4.26379 14.1484C3.28804 17.3466 3.28804 20.4907 4.26379 23.689C5.34795 23.5806 6.21529 23.9601 6.9742 24.719C8.11258 24.1769 9.19674 23.5806 10.3351 22.9301ZM30.9343 24.7732C31.639 24.0685 32.4521 23.6348 33.482 23.689C33.5363 23.689 33.6989 23.5264 33.7531 23.4722C34.2952 21.7375 34.512 20.0029 34.4036 18.1598C34.3494 16.8046 34.1325 15.5036 33.6447 14.2026C32.6147 14.311 31.7474 13.9857 31.0427 13.281C30.9885 13.2268 30.8258 13.2268 30.7174 13.281C30.2296 13.5521 29.7417 13.8231 29.308 14.0399C28.7659 14.3652 28.1696 14.6362 27.6276 14.9615C28.7659 17.6177 28.7659 20.2739 27.6276 22.9301C28.7117 23.5806 29.7959 24.1769 30.9343 24.7732ZM18.9542 4.71612C19.93 4.71612 20.7431 3.903 20.7431 2.98146C20.7431 2.00571 19.9842 1.19258 19.0084 1.19258C18.0327 1.19258 17.2196 2.00571 17.2196 2.98146C17.1654 3.903 17.9785 4.71612 18.9542 4.71612ZM6.48633 11.2753C6.48633 10.2996 5.6732 9.48645 4.69746 9.48645C3.72171 9.48645 2.90858 10.2996 2.90858 11.2753C2.90858 12.2511 3.72171 13.01 4.69746 13.01C5.72741 13.01 6.48633 12.1969 6.48633 11.2753ZM34.9457 11.2753C34.9457 10.2996 34.1325 9.48645 33.211 9.48645C32.2353 9.48645 31.4221 10.2454 31.4221 11.2211C31.4221 12.1969 32.2353 13.01 33.211 13.01C34.1325 13.0642 34.9457 12.2511 34.9457 11.2753ZM6.48633 26.6705C6.48633 25.6947 5.6732 24.8816 4.69746 24.8816C3.72171 24.8816 2.90858 25.6947 2.90858 26.6705C2.90858 27.6462 3.72171 28.4593 4.69746 28.4593C5.72741 28.4593 6.48633 27.6462 6.48633 26.6705ZM34.9457 26.6705C34.9457 25.6947 34.1325 24.8816 33.211 24.8816C32.2353 24.8816 31.4221 25.6405 31.4221 26.6163C31.4221 27.592 32.2353 28.4051 33.211 28.4051C34.1325 28.4593 34.9457 27.6462 34.9457 26.6705ZM18.9542 33.2297C17.9785 33.2297 17.1654 34.0428 17.1654 34.9643C17.1654 35.9401 17.9785 36.7532 18.9542 36.7532C19.93 36.7532 20.7431 35.9401 20.7431 34.9643C20.7431 33.9886 19.93 33.2297 18.9542 33.2297Z" fill="white"/>
<path d="M17.0565 18.2674C15.9181 17.2375 15.7555 15.9907 16.0807 14.6355C16.406 13.2261 17.8154 12.3045 19.1706 12.4129C20.7426 12.5756 21.7726 13.7681 21.881 15.3402C21.9352 16.4243 21.7184 17.4001 20.7969 18.2132C20.9595 18.3216 21.1221 18.4843 21.2847 18.5927C22.1521 19.1348 23.0736 19.6768 23.9409 20.1647C24.1578 20.2731 24.2662 20.4358 24.212 20.7068C24.212 21.2489 24.212 21.791 24.212 22.2788C24.2662 22.9835 23.8867 23.4714 23.2904 23.6883C22.6941 23.9051 22.0436 24.0677 21.4474 24.1219C19.4959 24.2845 17.4901 24.3388 15.5387 24.0135C15.2134 23.9593 14.8882 23.8509 14.5629 23.7425C13.9124 23.4714 13.5329 22.9835 13.5872 22.2788C13.5872 21.7368 13.5872 21.1947 13.5872 20.6526C13.5872 20.4358 13.6414 20.3273 13.804 20.2189C14.7255 19.6768 15.5929 19.1348 16.5144 18.5927C16.7312 18.5385 16.8939 18.4301 17.0565 18.2674ZM18.6285 23.1462C19.7127 23.092 20.4716 23.092 21.2305 23.0378C21.7184 22.9836 22.2605 22.8751 22.7484 22.7667C23.0194 22.7125 23.0736 22.5499 23.0736 22.2788C23.2362 21.4115 22.911 20.8152 22.0436 20.49C21.9352 20.4358 21.8268 20.3816 21.7726 20.3273C21.1221 19.8937 20.4716 19.4058 19.8211 18.9721C19.7669 18.9179 19.6043 18.9179 19.4959 18.9179C19.0622 18.9179 18.6827 18.9179 18.2491 18.9179C18.1406 18.9179 17.978 18.9179 17.9238 18.9721C17.2191 19.7311 16.2976 20.1647 15.4302 20.6526C14.8882 20.9778 14.6171 21.3031 14.7255 21.9536C14.7797 22.7125 14.7797 22.7125 15.4844 22.9293C15.5387 22.9293 15.5387 22.9293 15.5929 22.9293C16.7854 22.9835 17.8696 23.092 18.6285 23.1462ZM17.1649 15.6654C17.1649 15.8281 17.1649 15.9907 17.1649 16.1533C17.2191 17.0748 17.978 17.7253 18.8454 17.7796C19.7127 17.8338 20.5258 17.2375 20.6342 16.3701C20.6884 15.8823 20.6884 15.3944 20.58 14.9607C20.309 13.8766 19.008 13.3345 18.0322 13.8766C17.4359 14.256 17.1649 14.9065 17.1649 15.6654Z" fill="white"/>
<path d="M19.5505 3.52314C19.171 3.52314 18.7916 3.52314 18.4121 3.52314C18.4121 3.14368 18.4121 2.76422 18.4121 2.38477C18.7916 2.38477 19.171 2.38477 19.5505 2.38477C19.5505 2.76422 19.5505 3.14368 19.5505 3.52314Z" fill="white"/>
<path d="M5.29267 11.8161C4.91321 11.8161 4.53375 11.8161 4.1543 11.8161C4.1543 11.4366 4.1543 11.0572 4.1543 10.6777C4.53375 10.6777 4.91321 10.6777 5.29267 10.6777C5.29267 11.0572 5.29267 11.4366 5.29267 11.8161Z" fill="white"/>
<path d="M33.7526 10.6777C33.7526 11.0572 33.7526 11.4366 33.7526 11.8161C33.3732 11.8161 32.9937 11.8161 32.6143 11.8161C32.6143 11.4366 32.6143 11.0572 32.6143 10.6777C32.9937 10.6777 33.3732 10.6777 33.7526 10.6777Z" fill="white"/>
<path d="M5.29267 27.2663C4.91321 27.2663 4.53375 27.2663 4.1543 27.2663C4.1543 26.8868 4.1543 26.5074 4.1543 26.1279C4.53375 26.1279 4.91321 26.1279 5.29267 26.1279C5.29267 26.5074 5.29267 26.8868 5.29267 27.2663Z" fill="white"/>
<path d="M33.7526 26.1279C33.7526 26.5074 33.7526 26.8868 33.7526 27.2663C33.3732 27.2663 32.9937 27.2663 32.6143 27.2663C32.6143 26.8868 32.6143 26.5074 32.6143 26.1279C32.9937 26.1279 33.3732 26.1279 33.7526 26.1279Z" fill="white"/>
<path d="M19.5505 34.4219C19.5505 34.8013 19.5505 35.1808 19.5505 35.5602C19.171 35.5602 18.7916 35.5602 18.4121 35.5602C18.4121 35.1808 18.4121 34.8013 18.4121 34.4219C18.7916 34.4219 19.1168 34.4219 19.5505 34.4219Z" fill="white"/>
</svg>
