<svg width="38" height="38" viewBox="0 0 38 38" fill="none" xmlns="http://www.w3.org/2000/svg">
<path d="M2.53333 32.1417H19.6333V34.0417C19.6333 35.0906 20.4844 35.9417 21.5333 35.9417H24.0667C24.6208 35.9417 25.1453 35.6943 25.5016 35.2786C25.5115 35.2786 25.5214 35.2786 25.5312 35.2687C25.9964 35.7042 26.6 35.9417 27.2333 35.9417H34.8333C35.8823 35.9417 36.7333 35.0906 36.7333 34.0417C36.7333 33.7151 36.6443 33.3885 36.476 33.1115C37.337 32.5771 37.624 31.4589 37.1094 30.5781C37.5844 30.2812 37.901 29.7865 37.9802 29.2323C38.0594 28.6781 37.8813 28.1141 37.5052 27.7083C38.0099 27.1542 38.1385 26.3526 37.8318 25.6698C37.525 24.987 36.8422 24.5417 36.0901 24.5417H34.1901V4.90833C34.1901 3.51302 33.0521 2.375 31.6568 2.375H2.53333C1.13802 2.375 0 3.51302 0 4.90833V29.6083C0 31.0036 1.13802 32.1417 2.53333 32.1417ZM24.0667 34.675H21.5333C21.187 34.675 20.9 34.388 20.9 34.0417V28.3417C20.9 27.9953 21.187 27.7083 21.5333 27.7083H24.0667C24.413 27.7083 24.7 27.9953 24.7 28.3417V34.0417C24.7 34.388 24.413 34.675 24.0667 34.675ZM36.7333 26.4417C36.7333 26.788 36.4464 27.075 36.1 27.075H34.2C33.8536 27.075 33.5667 27.362 33.5667 27.7083C33.5667 28.0547 33.8536 28.3417 34.2 28.3417H36.1C36.4464 28.3417 36.7333 28.6286 36.7333 28.975C36.7333 29.3214 36.4464 29.6083 36.1 29.6083H34.2C33.8536 29.6083 33.5667 29.8953 33.5667 30.2417C33.5667 30.588 33.8536 30.875 34.2 30.875H35.4667C35.813 30.875 36.1 31.162 36.1 31.5083C36.1 31.8547 35.813 32.1417 35.4667 32.1417H34.2C33.8536 32.1417 33.5667 32.4286 33.5667 32.775C33.5667 33.1214 33.8536 33.4083 34.2 33.4083H34.8333C35.1797 33.4083 35.4667 33.6953 35.4667 34.0417C35.4667 34.388 35.1797 34.675 34.8333 34.675H27.2333C26.5307 34.675 25.9667 34.1109 25.9667 33.4083V28.0745C26.7583 27.5797 27.3521 26.8177 27.649 25.937C28.213 24.2448 28.5 22.4734 28.5 20.6922C28.5 20.6031 28.5594 20.5339 28.6385 20.5042C28.8563 20.4646 29.4203 20.3656 29.9547 21.4146C30.2516 22.0182 30.4 22.6813 30.3901 23.3641V25.175C30.3901 25.5214 30.6771 25.8083 31.0234 25.8083H36.0901C36.4464 25.8083 36.7333 26.0953 36.7333 26.4417ZM31.6667 24.5417V23.3641C31.6766 22.4932 31.4786 21.6224 31.0927 20.8406C30.4693 19.6234 29.5193 19.0594 28.4208 19.2573C27.7281 19.3859 27.2333 19.9896 27.2333 20.6922C27.2333 22.3349 26.9661 23.9776 26.4516 25.5411C26.2536 26.125 25.8677 26.6198 25.3531 26.9661C25.0068 26.6396 24.5417 26.4615 24.0667 26.4516H21.5333C20.4844 26.4516 19.6333 27.3026 19.6333 28.3516V30.8849H2.53333C1.83073 30.8849 1.26667 30.3208 1.26667 29.6182V8.70833H32.9333V24.5417H31.6667ZM2.53333 3.64167H31.6667C32.3693 3.64167 32.9333 4.20573 32.9333 4.90833V7.44167H1.26667V4.90833C1.26667 4.20573 1.83073 3.64167 2.53333 3.64167Z" fill="white"/>
<path fill-rule="evenodd" clip-rule="evenodd" d="M3.79987 5.54154C3.79987 5.88789 3.51289 6.17487 3.16654 6.17487C2.82018 6.17487 2.5332 5.88789 2.5332 5.54154C2.5332 5.19518 2.82018 4.9082 3.16654 4.9082C3.51289 4.9082 3.79987 5.19518 3.79987 5.54154Z" fill="white"/>
<path fill-rule="evenodd" clip-rule="evenodd" d="M6.33307 5.54154C6.33307 5.88789 6.04609 6.17487 5.69974 6.17487C5.35339 6.17487 5.06641 5.88789 5.06641 5.54154C5.06641 5.19518 5.35339 4.9082 5.69974 4.9082C6.04609 4.9082 6.33307 5.19518 6.33307 5.54154Z" fill="white"/>
<path fill-rule="evenodd" clip-rule="evenodd" d="M8.86628 5.54154C8.86628 5.88789 8.5793 6.17487 8.23294 6.17487C7.88659 6.17487 7.59961 5.88789 7.59961 5.54154C7.59961 5.19518 7.88659 4.9082 8.23294 4.9082C8.5793 4.9082 8.86628 5.19518 8.86628 5.54154Z" fill="white"/>
<path d="M5.06699 22.0084H15.2003C16.2493 22.0084 17.1003 21.1574 17.1003 20.1084V12.5084C17.1003 11.4594 16.2493 10.6084 15.2003 10.6084H5.06699C4.01803 10.6084 3.16699 11.4594 3.16699 12.5084V20.1084C3.16699 21.1574 4.01803 22.0084 5.06699 22.0084ZM6.62064 20.7417L9.5498 16.1303L10.955 17.8917L9.15397 20.7417H6.62064ZM15.2003 20.7417H10.6581L13.993 15.4969L15.8337 17.8027V20.1183C15.8337 20.4548 15.5467 20.7417 15.2003 20.7417ZM4.43366 12.5084C4.43366 12.162 4.72064 11.8751 5.06699 11.8751H15.2003C15.5467 11.8751 15.8337 12.162 15.8337 12.5084V15.774L14.4285 14.0126C14.2998 13.8542 14.1019 13.7652 13.904 13.7751C13.6962 13.785 13.518 13.8938 13.3993 14.0719L11.6873 16.7636L9.99512 14.6459C9.86647 14.4876 9.66855 14.3985 9.47064 14.4084C9.26283 14.4183 9.0847 14.5271 8.96595 14.7053L5.12637 20.7417H5.06699C4.72064 20.7417 4.43366 20.4548 4.43366 20.1084V12.5084Z" fill="white"/>
<path fill-rule="evenodd" clip-rule="evenodd" d="M6.96589 13.7749C6.96589 14.1213 6.67891 14.4083 6.33255 14.4083C5.9862 14.4083 5.69922 14.1213 5.69922 13.7749C5.69922 13.4286 5.9862 13.1416 6.33255 13.1416C6.67891 13.1416 6.96589 13.4286 6.96589 13.7749Z" fill="white"/>
<path fill-rule="evenodd" clip-rule="evenodd" d="M30.4 11.2412H19.6333C19.287 11.2412 19 11.5282 19 11.8745C19 12.2209 19.287 12.5079 19.6333 12.5079H30.4C30.7464 12.5079 31.0333 12.2209 31.0333 11.8745C31.0333 11.5282 30.7464 11.2412 30.4 11.2412Z" fill="white"/>
<path fill-rule="evenodd" clip-rule="evenodd" d="M30.4 13.7754H19.6333C19.287 13.7754 19 14.0624 19 14.4087C19 14.7551 19.287 15.0421 19.6333 15.0421H30.4C30.7464 15.0421 31.0333 14.7551 31.0333 14.4087C31.0333 14.0624 30.7464 13.7754 30.4 13.7754Z" fill="white"/>
<path fill-rule="evenodd" clip-rule="evenodd" d="M30.4 16.3076H19.6333C19.287 16.3076 19 16.5946 19 16.941C19 17.2873 19.287 17.5743 19.6333 17.5743H30.4C30.7464 17.5743 31.0333 17.2873 31.0333 16.941C31.0333 16.5946 30.7464 16.3076 30.4 16.3076Z" fill="white"/>
<path fill-rule="evenodd" clip-rule="evenodd" d="M25.3333 18.8418H19.6333C19.287 18.8418 19 19.1288 19 19.4751C19 19.8215 19.287 20.1085 19.6333 20.1085H25.3333C25.6797 20.1085 25.9667 19.8215 25.9667 19.4751C25.9667 19.1288 25.6797 18.8418 25.3333 18.8418Z" fill="white"/>
<path fill-rule="evenodd" clip-rule="evenodd" d="M18.367 24.542H3.80033C3.45397 24.542 3.16699 24.829 3.16699 25.1753C3.16699 25.5217 3.45397 25.8087 3.80033 25.8087H18.367C18.7133 25.8087 19.0003 25.5217 19.0003 25.1753C19.0003 24.829 18.7133 24.542 18.367 24.542Z" fill="white"/>
<path fill-rule="evenodd" clip-rule="evenodd" d="M16.467 27.0742H3.80033C3.45397 27.0742 3.16699 27.3612 3.16699 27.7076C3.16699 28.0539 3.45397 28.3409 3.80033 28.3409H16.467C16.8133 28.3409 17.1003 28.0539 17.1003 27.7076C17.1003 27.3612 16.8133 27.0742 16.467 27.0742Z" fill="white"/>
</svg>
