<svg width="94" height="14" viewBox="0 0 94 14" fill="none" xmlns="http://www.w3.org/2000/svg">
<path d="M3.48993 13.9518C3.04563 13.9518 2.53346 13.8839 1.9534 13.7481L0.120674 13.2483L0.620509 11.7488C1.6572 12.119 2.52111 12.3042 3.21224 12.3042C3.58249 12.3042 3.89103 12.2178 4.13786 12.045C4.3847 11.8722 4.50811 11.6377 4.50811 11.3415C4.50811 11.0453 4.42789 10.8232 4.26745 10.6751C4.10701 10.527 3.81081 10.3974 3.37886 10.2863L2.37919 10.0271C0.996928 9.66923 0.305798 8.85469 0.305798 7.58351C0.305798 6.81833 0.595826 6.18891 1.17588 5.69524C1.76828 5.20158 2.53963 4.95475 3.48993 4.95475C3.87252 4.95475 4.32299 5.02262 4.84133 5.15838L6.67406 5.65822L6.17423 7.15772C5.17456 6.78747 4.41555 6.60235 3.8972 6.60235C3.55164 6.60235 3.26161 6.69491 3.02712 6.88003C2.79263 7.05282 2.67538 7.28114 2.67538 7.56499C2.67538 7.86119 2.7556 8.08334 2.91605 8.23144C3.07649 8.37954 3.37268 8.50912 3.80464 8.6202L4.7858 8.87937C5.52629 9.07684 6.05698 9.37921 6.37786 9.78648C6.69874 10.1814 6.85918 10.6936 6.85918 11.323C6.85918 12.0758 6.57533 12.7053 6.00761 13.2113C5.4399 13.7049 4.60067 13.9518 3.48993 13.9518ZM11.4074 13.9518C10.4818 13.9518 9.82772 13.7234 9.44513 13.2668C9.07489 12.8102 8.88976 12.1129 8.88976 11.1749V6.75045H7.51985V5.12136H8.88976V2.95541L11.2408 2.4926V5.12136H13.2772V6.75045H11.2408V11.2119C11.2408 11.9401 11.537 12.3042 12.1294 12.3042C12.4873 12.3042 12.8699 12.1931 13.2772 11.9709L13.6474 13.3594C12.9687 13.7543 12.222 13.9518 11.4074 13.9518ZM17.1717 13.9518C16.3325 13.9518 15.6661 13.6926 15.1724 13.1742C14.6787 12.6559 14.4319 12.0388 14.4319 11.323C14.4319 10.7923 14.6047 10.3665 14.9503 10.0457C15.3082 9.71243 15.8635 9.45326 16.6164 9.26813L19.5969 8.52764V7.76863C19.5969 7.41072 19.4858 7.12687 19.2636 6.91706C19.0538 6.70725 18.7576 6.60235 18.375 6.60235C17.9431 6.60235 16.9681 6.9294 15.4501 7.58351L14.8022 6.084L16.9126 5.30648C17.5543 5.07199 18.0233 4.95475 18.3195 4.95475C19.4426 4.95475 20.325 5.25094 20.9668 5.84334C21.6209 6.4234 21.9479 7.18857 21.9479 8.13888V11.323C21.9479 11.5575 21.985 11.9092 22.059 12.3782C22.1454 12.8349 22.2565 13.2236 22.3922 13.5445L20.3744 13.9518C20.1276 13.6803 19.8684 13.3038 19.5969 12.8225C18.77 13.5753 17.9616 13.9518 17.1717 13.9518ZM18.0048 12.3042C18.4861 12.3042 19.0168 12.0265 19.5969 11.4711V9.60136L17.7456 10.1382C17.1532 10.311 16.857 10.638 16.857 11.1194C16.857 11.4896 16.9619 11.7796 17.1717 11.9895C17.3816 12.1993 17.6592 12.3042 18.0048 12.3042ZM26.8378 13.9518C25.9122 13.9518 25.2581 13.7234 24.8755 13.2668C24.5053 12.8102 24.3201 12.1129 24.3201 11.1749V6.75045H22.9502V5.12136H24.3201V2.95541L26.6712 2.4926V5.12136H28.7076V6.75045H26.6712V11.2119C26.6712 11.9401 26.9674 12.3042 27.5598 12.3042C27.9177 12.3042 28.3003 12.1931 28.7076 11.9709L29.0778 13.3594C28.399 13.7543 27.6524 13.9518 26.8378 13.9518ZM52.9841 13.7852H50.633V8.73127C50.633 7.99078 50.522 7.45392 50.2998 7.1207C50.09 6.77513 49.7506 6.60235 49.2816 6.60235C48.8126 6.60235 48.3066 6.88003 47.7636 7.43541V13.7852H45.4125V8.73127C45.4125 7.99078 45.3076 7.45392 45.0978 7.1207C44.888 6.77513 44.5425 6.60235 44.0611 6.60235C43.6045 6.60235 43.0985 6.88003 42.5431 7.43541V13.7852H40.192V7.58351C40.192 7.34902 40.1488 7.00345 40.0625 6.54681C39.9884 6.07783 39.8835 5.6829 39.7477 5.36202L41.7471 4.95475C42.0063 5.21392 42.2716 5.59034 42.5431 6.084C43.3206 5.33116 44.129 4.95475 44.9682 4.95475C46.2147 4.95475 47.0601 5.39287 47.5044 6.26913C47.776 5.91122 48.1647 5.60268 48.6707 5.34351C49.1767 5.08433 49.6827 4.95475 50.1887 4.95475C51.1267 4.95475 51.824 5.22626 52.2806 5.76929C52.7496 6.31232 52.9841 7.15772 52.9841 8.30549V13.7852ZM57.2525 13.9518C56.4133 13.9518 55.7468 13.6926 55.2532 13.1742C54.7595 12.6559 54.5127 12.0388 54.5127 11.323C54.5127 10.7923 54.6855 10.3665 55.031 10.0457C55.3889 9.71243 55.9443 9.45326 56.6971 9.26813L59.6776 8.52764V7.76863C59.6776 7.41072 59.5666 7.12687 59.3444 6.91706C59.1346 6.70725 58.8384 6.60235 58.4558 6.60235C58.0239 6.60235 57.0489 6.9294 55.5309 7.58351L54.8829 6.084L56.9933 5.30648C57.6351 5.07199 58.1041 4.95475 58.4003 4.95475C59.5234 4.95475 60.4058 5.25094 61.0476 5.84334C61.7017 6.4234 62.0287 7.18857 62.0287 8.13888V11.323C62.0287 11.5575 62.0657 11.9092 62.1398 12.3782C62.2262 12.8349 62.3372 13.2236 62.473 13.5445L60.4552 13.9518C60.2083 13.6803 59.9492 13.3038 59.6776 12.8225C58.8507 13.5753 58.0424 13.9518 57.2525 13.9518ZM58.0856 12.3042C58.5669 12.3042 59.0976 12.0265 59.6776 11.4711V9.60136L57.8264 10.1382C57.234 10.311 56.9378 10.638 56.9378 11.1194C56.9378 11.4896 57.0427 11.7796 57.2525 11.9895C57.4623 12.1993 57.74 12.3042 58.0856 12.3042ZM66.4885 13.7852H64.1374V7.58351C64.1374 7.34902 64.0942 7.00345 64.0078 6.54681C63.9338 6.07783 63.8288 5.6829 63.6931 5.36202L65.6924 4.95475C66.075 5.33734 66.3404 5.85568 66.4885 6.50979C66.7353 6.01612 67.0623 5.63353 67.4696 5.36202C67.8892 5.0905 68.3397 4.95475 68.821 4.95475C69.0925 4.95475 69.3394 4.99794 69.5615 5.08433L69.1542 7.10218H68.5433C67.9633 7.10218 67.5066 7.24411 67.1734 7.52797C66.8525 7.79948 66.6242 8.25612 66.4885 8.89789V13.7852ZM78.7136 13.7852H75.8256L72.9562 9.30516V13.7852H70.6052V1.41888L72.9562 0.95607V8.65722L75.8812 5.12136H78.5285L75.0481 8.99045L78.7136 13.7852ZM82.9276 13.9518C81.533 13.9518 80.4778 13.5383 79.762 12.7114C79.0585 11.8722 78.7068 10.7738 78.7068 9.41623C78.7068 8.05866 79.0709 6.97877 79.799 6.17656C80.5272 5.36202 81.5392 4.95475 82.835 4.95475C85.3404 4.95475 86.5931 6.25678 86.5931 8.86086C86.5931 9.13238 86.5622 9.36069 86.5005 9.54582H81.1319C81.1319 10.4714 81.2985 11.1626 81.6317 11.6192C81.9773 12.0758 82.4525 12.3042 83.0572 12.3042C83.736 12.3042 84.6246 12.0573 85.723 11.5637L86.3709 13.0632L84.4086 13.7852C84.0754 13.8962 83.5817 13.9518 82.9276 13.9518ZM82.7055 6.60235C82.2118 6.60235 81.823 6.77513 81.5392 7.1207C81.2677 7.46626 81.1319 7.89822 81.1319 8.41656H84.1494C84.1494 7.20709 83.6681 6.60235 82.7055 6.60235ZM91.2031 13.9518C90.2775 13.9518 89.6234 13.7234 89.2408 13.2668C88.8705 12.8102 88.6854 12.1129 88.6854 11.1749V6.75045H87.3155V5.12136H88.6854V2.95541L91.0365 2.4926V5.12136H93.0728V6.75045H91.0365V11.2119C91.0365 11.9401 91.3327 12.3042 91.9251 12.3042C92.283 12.3042 92.6656 12.1931 93.0728 11.9709L93.4431 13.3594C92.7643 13.7543 92.0176 13.9518 91.2031 13.9518Z" fill="#54618E"/>
<path d="M37.5079 13.7852H35.2679V10.9342H30.214L29.7142 9.49028L34.9902 1.93723H37.5079V9.19408H38.6927V10.9342H37.5079V13.7852ZM35.2679 9.19408V4.38086L31.9912 9.19408H35.2679Z" fill="#D653D2"/>
</svg>
