<svg width="352" height="363" viewBox="0 0 352 363" fill="none" xmlns="http://www.w3.org/2000/svg">
<g clip-path="url(#clip0_1458_23842)">
<path opacity="0.5" d="M316.606 76.6637C311.259 69.3294 265.488 8.6709 191.297 11.6261C187.589 11.7728 115.231 15.6031 88.5432 63.1521C68.8012 98.3251 89.7027 129.531 65.6184 153.496C44.6271 174.377 18.842 160.555 5.94626 177.441C-13.6983 203.161 17.58 272.627 65.6513 311.369C115.282 351.37 210.232 380.717 284.036 327.348C366.885 267.428 366.049 144.487 316.606 76.6637Z" fill="url(#paint0_linear_1458_23842)" fill-opacity="0.5"/>
<g style="mix-blend-mode:soft-light">
<g style="mix-blend-mode:soft-light">
<path d="M85.6402 230.086C78.7474 230.08 71.8623 229.626 65.0283 228.728L65.108 228.12C109.407 233.901 137.866 219.394 140.98 217.712C125.41 193.45 136.415 157.751 136.529 157.394L137.113 157.579C137.001 157.935 125.999 193.634 141.673 217.656L141.849 217.926L141.569 218.088C141.318 218.228 120.411 230.086 85.6402 230.086Z" fill="white"/>
</g>
</g>
<path d="M113.002 199.082C112.571 199.081 112.156 198.921 111.838 198.631C111.519 198.341 111.32 197.943 111.279 197.514C109.762 181.591 104.57 166.461 96.6601 154.913C89.6533 144.682 81.3124 138.577 74.3423 138.577H74.3208C48.9352 138.626 43.6242 196.908 43.5736 197.504C43.5229 197.953 43.2991 198.364 42.9497 198.65C42.6003 198.937 42.1529 199.075 41.7029 199.037C41.2528 198.998 40.8356 198.786 40.5399 198.444C40.2443 198.102 40.0937 197.659 40.1202 197.208C40.3377 194.679 45.7726 135.172 74.3132 135.119H74.3435C82.5795 135.119 91.7537 141.62 99.5217 152.963C107.756 164.988 113.158 180.696 114.73 197.193C114.753 197.42 114.73 197.649 114.664 197.868C114.598 198.086 114.489 198.289 114.344 198.465C114.199 198.641 114.021 198.787 113.819 198.894C113.618 199.002 113.397 199.068 113.17 199.09C113.113 199.085 113.057 199.082 113.002 199.082Z" fill="url(#paint1_linear_1458_23842)"/>
<path d="M7.24446 319.033L40.6623 335.952L60.9164 273.819L27.5478 190.516L18.0878 192.835L3.73285 312.46C3.57218 313.784 3.82306 315.125 4.45135 316.301C5.07965 317.477 6.05488 318.431 7.24446 319.033Z" fill="url(#paint2_linear_1458_23842)"/>
<path style="mix-blend-mode:multiply" opacity="0.52" d="M60.9167 273.819L27.5482 190.516L21.969 191.889C21.3322 200.857 21.363 209.861 22.0614 218.824C24.297 247.184 31.7249 255.076 28.1311 274.861C25.1392 291.311 18.6054 293.544 19.1757 304.613C19.7978 316.666 28.2057 326.761 38.2019 334.698L40.6677 335.946L60.9167 273.819Z" fill="url(#paint3_linear_1458_23842)"/>
<path d="M27.5479 190.521H152.148L193.384 323.646L40.6623 335.951L27.5479 190.521Z" fill="url(#paint4_linear_1458_23842)"/>
<path d="M66.1465 201.931C65.7552 201.932 65.3753 201.8 65.0685 201.557C64.7617 201.314 64.5462 200.974 64.4571 200.593C64.1031 199.083 55.9165 163.416 67.4591 145.906C70.7671 140.889 75.3903 137.825 81.197 136.801C111.04 131.543 129.407 195.631 130.175 198.363C130.243 198.584 130.267 198.816 130.244 199.047C130.221 199.277 130.152 199.5 130.041 199.704C129.931 199.907 129.78 200.086 129.599 200.23C129.418 200.375 129.21 200.481 128.987 200.544C128.765 200.606 128.531 200.624 128.302 200.595C128.072 200.566 127.85 200.491 127.65 200.375C127.45 200.259 127.275 200.104 127.135 199.92C126.996 199.735 126.895 199.524 126.838 199.3C126.658 198.667 108.574 135.487 81.799 140.214C76.8989 141.079 73.1546 143.565 70.3536 147.814C59.6228 164.087 67.7487 199.446 67.8322 199.802C67.9369 200.249 67.8596 200.72 67.6172 201.111C67.3749 201.502 66.9874 201.78 66.5398 201.886C66.4108 201.915 66.2789 201.931 66.1465 201.931Z" fill="url(#paint5_linear_1458_23842)"/>
<g style="mix-blend-mode:multiply" opacity="0.3">
<path style="mix-blend-mode:multiply" opacity="0.3" d="M152.148 190.516H90.3348C87.286 193.617 85.1224 197.19 84.915 201.2C83.9439 220.042 127.244 226.223 131.421 252.034C134.433 270.657 115.897 292.144 99.3585 301.717C81.9333 311.803 70.1263 306.695 58.3408 317.893C53.1638 322.813 50.0101 328.965 48.1348 335.343L193.384 323.64L152.148 190.516Z" fill="url(#paint6_linear_1458_23842)"/>
</g>
<path d="M70.9436 202.98C71.3722 200.34 69.5793 197.852 66.939 197.424C64.2988 196.995 61.811 198.788 61.3824 201.428C60.9539 204.068 62.7468 206.556 65.387 206.985C68.0273 207.413 70.5151 205.62 70.9436 202.98Z" fill="url(#paint7_linear_1458_23842)"/>
<path d="M134.818 201.92C135.245 199.272 133.446 196.779 130.798 196.351C128.15 195.923 125.656 197.722 125.228 200.37C124.8 203.018 126.6 205.512 129.248 205.94C131.896 206.368 134.39 204.568 134.818 201.92Z" fill="url(#paint8_linear_1458_23842)"/>
<path d="M243.629 52.4289C254.453 143.897 265.276 234.415 276.098 323.983C276.584 327.999 273.81 331.55 269.928 331.881C226.428 336.008 182.93 340.223 139.435 344.526C131.676 344.906 127.415 340.567 126.917 336.227C115.777 239.541 104.637 141.843 93.4962 43.1333C92.9904 38.6998 96.7524 34.8898 104.512 35.2691C148.224 38.3883 191.935 41.4654 235.644 44.5002C239.554 44.7582 243.144 48.3229 243.629 52.4289Z" fill="#26264F"/>
<path d="M249.67 52.2392C260.562 144.112 271.453 235.018 282.343 324.956C282.833 328.985 280.042 332.557 276.134 332.89C230.968 336.716 185.801 340.617 140.634 344.593C136.513 344.96 132.725 341.695 132.223 337.334C121.01 240.205 109.798 142.052 98.5861 42.8753C98.0803 38.4229 101.071 35.0061 105.221 35.2881C150.691 38.323 196.161 41.3199 241.632 44.2789C245.569 44.5394 249.182 48.1168 249.67 52.2392Z" fill="url(#paint9_linear_1458_23842)"/>
<path d="M247.046 67.2682C257.133 152.388 267.221 236.678 277.309 320.137C277.766 323.909 275.159 327.24 271.507 327.537C229.03 331.011 186.553 334.551 144.077 338.159C140.239 338.488 136.711 335.432 136.236 331.38C125.867 241.667 115.502 151.079 105.141 59.6165C104.672 55.4777 107.453 52.2759 111.315 52.5047C154.056 54.9933 196.798 57.4558 239.539 59.8922C243.216 60.0995 246.591 63.4303 247.046 67.2682Z" fill="url(#paint10_linear_1458_23842)"/>
<path d="M247.046 67.2682C257.133 152.388 267.221 236.678 277.309 320.137C277.766 323.909 275.159 327.24 271.507 327.537C229.03 331.011 186.553 334.551 144.077 338.159C140.239 338.488 136.711 335.432 136.236 331.38C125.867 241.667 115.502 151.079 105.141 59.6165C104.672 55.4777 107.453 52.2759 111.315 52.5047C154.056 54.9933 196.798 57.4558 239.539 59.8922C243.216 60.0995 246.591 63.4303 247.046 67.2682Z" fill="url(#paint11_linear_1458_23842)"/>
<g style="mix-blend-mode:multiply" opacity="0.35">
<path d="M239.544 59.8896C197.309 57.4819 155.073 55.0486 112.838 52.5895C114.259 60.8791 116.753 68.9485 120.258 76.5941C134.268 106.988 154.85 108.661 162.901 135.142C171.196 162.429 152.489 170.969 161.627 195.606C171.545 222.339 195.87 218.47 208.725 247.794C219.806 273.07 205.541 284.624 216.999 299.984C229.558 316.819 252.792 311.112 276.908 316.814C266.955 234.441 257.001 151.259 247.047 67.2694C246.592 63.4303 243.217 60.0995 239.544 59.8896Z" fill="url(#paint12_linear_1458_23842)"/>
</g>
<path d="M177.854 48.6694C178.026 50.1502 177.031 51.2832 175.633 51.1985C174.234 51.1137 172.957 49.8416 172.785 48.3545C172.613 46.8674 173.609 45.7319 175.009 45.8255C176.409 45.919 177.682 47.1874 177.854 48.6694Z" fill="#DE8BDF"/>
<path d="M193.112 130.926C198.511 130.926 202.888 125.763 202.888 119.394C202.888 113.024 198.511 107.861 193.112 107.861C187.713 107.861 183.336 113.024 183.336 119.394C183.336 125.763 187.713 130.926 193.112 130.926Z" fill="#DD51D4"/>
<path d="M193.112 130.926C198.511 130.926 202.888 125.763 202.888 119.394C202.888 113.024 198.511 107.861 193.112 107.861C187.713 107.861 183.336 113.024 183.336 119.394C183.336 125.763 187.713 130.926 193.112 130.926Z" fill="black" fill-opacity="0.2"/>
<path d="M232.026 130.926C237.424 130.926 241.801 125.763 241.801 119.394C241.801 113.024 237.424 107.861 232.026 107.861C226.627 107.861 222.251 113.024 222.251 119.394C222.251 125.763 226.627 130.926 232.026 130.926Z" fill="#DD51D4"/>
<path d="M232.026 130.926C237.424 130.926 241.801 125.763 241.801 119.394C241.801 113.024 237.424 107.861 232.026 107.861C226.627 107.861 222.251 113.024 222.251 119.394C222.251 125.763 226.627 130.926 232.026 130.926Z" fill="black" fill-opacity="0.2"/>
<path d="M212.461 130.926C217.937 130.926 222.376 125.763 222.376 119.394C222.376 113.024 217.937 107.861 212.461 107.861C206.985 107.861 202.546 113.024 202.546 119.394C202.546 125.763 206.985 130.926 212.461 130.926Z" fill="#D8DEE8"/>
<path d="M270.938 130.926C276.337 130.926 280.714 125.763 280.714 119.394C280.714 113.024 276.337 107.861 270.938 107.861C265.539 107.861 261.162 113.024 261.162 119.394C261.162 125.763 265.539 130.926 270.938 130.926Z" fill="#DD51D4"/>
<path d="M270.938 130.926C276.337 130.926 280.714 125.763 280.714 119.394C280.714 113.024 276.337 107.861 270.938 107.861C265.539 107.861 261.162 113.024 261.162 119.394C261.162 125.763 265.539 130.926 270.938 130.926Z" fill="black" fill-opacity="0.2"/>
<path d="M251.375 130.926C256.851 130.926 261.29 125.763 261.29 119.394C261.29 113.024 256.851 107.861 251.375 107.861C245.899 107.861 241.46 113.024 241.46 119.394C241.46 125.763 245.899 130.926 251.375 130.926Z" fill="#D8DEE8"/>
<path d="M290.287 130.926C295.763 130.926 300.203 125.763 300.203 119.394C300.203 113.024 295.763 107.861 290.287 107.861C284.811 107.861 280.372 113.024 280.372 119.394C280.372 125.763 284.811 130.926 290.287 130.926Z" fill="#D8DEE8"/>
<path d="M173.549 130.926C179.025 130.926 183.464 125.763 183.464 119.394C183.464 113.024 179.025 107.861 173.549 107.861C168.073 107.861 163.634 113.024 163.634 119.394C163.634 125.763 168.073 130.926 173.549 130.926Z" fill="#D8DEE8"/>
<path d="M103.185 51.3603L163.846 120.955H320.413L244.546 60.1741L103.185 51.3603Z" fill="url(#paint13_linear_1458_23842)"/>
<path d="M103.185 51.3603L163.846 120.955H320.413L244.546 60.1741L103.185 51.3603Z" fill="#DD51D4"/>
<path d="M103.185 51.3603L163.846 120.955H183.464L119.502 52.377L103.185 51.3603Z" fill="#F4F7FA"/>
<path d="M137.022 53.4696L202.796 120.955H222.174L154.673 54.571L137.022 53.4696Z" fill="#F4F7FA"/>
<path d="M172.455 55.6787L241.599 120.955H261.071L190.37 56.7966L172.455 55.6787Z" fill="#F4F7FA"/>
<path d="M226.614 59.0563L208.423 57.922L280.59 120.955H300.157L226.614 59.0563Z" fill="#F4F7FA"/>
<path d="M300.176 120.955C300.823 126.585 304.903 130.927 309.851 130.927C314.799 130.927 318.88 126.585 319.527 120.955H300.176Z" fill="#DD51D4"/>
<path d="M300.176 120.955C300.823 126.585 304.903 130.927 309.851 130.927C314.799 130.927 318.88 126.585 319.527 120.955H300.176Z" fill="black" fill-opacity="0.2"/>
<path opacity="0.63" d="M225.762 164.431C217.29 144.917 195.813 135.439 177.782 143.263C159.751 151.087 151.998 173.249 160.465 192.764C168.933 212.28 190.415 221.755 208.446 213.931C226.477 206.108 234.229 183.94 225.762 164.431ZM199.174 192.241L199.896 197.737L194.614 198.431L193.946 193.311C190.315 193.624 186.684 193.115 184.48 192.198L185.268 185.68C187.695 186.621 191.023 187.337 194.527 186.875C197.598 186.472 199.544 185.01 199.26 182.854C198.992 180.806 197.096 179.74 192.937 178.916C186.916 177.734 182.628 175.557 181.936 170.329C181.314 165.587 184.166 161.429 189.784 159.54L189.111 154.42L194.393 153.727L195.015 158.469C198.648 158.155 201.172 158.595 203.064 159.22L202.305 165.515C200.825 165.106 198.184 164.192 194.303 164.703C190.8 165.162 189.867 166.821 190.066 168.33C190.299 170.108 192.334 170.985 197.147 172.115C203.858 173.536 206.833 176.161 207.471 181.008C208.086 185.806 205.23 190.347 199.174 192.241Z" fill="#F4F7FA"/>
<g opacity="0.63">
<path opacity="0.63" d="M245.109 270.393L162.576 272.893C161.142 272.937 159.742 272.454 158.64 271.535C157.538 270.617 156.811 269.326 156.596 267.908L153.25 245.905C153.125 245.081 153.177 244.239 153.402 243.436C153.628 242.633 154.022 241.888 154.558 241.249C155.094 240.61 155.761 240.093 156.512 239.732C157.264 239.371 158.084 239.174 158.918 239.155L241.539 237.242C242.966 237.208 244.358 237.695 245.452 238.613C246.546 239.531 247.268 240.816 247.482 242.228L250.738 263.644C250.863 264.465 250.812 265.304 250.589 266.104C250.365 266.904 249.975 267.648 249.442 268.286C248.91 268.924 248.249 269.441 247.502 269.805C246.755 270.168 245.939 270.368 245.109 270.393Z" fill="#F4F7FA"/>
<path opacity="0.63" d="M247.881 288.481L165.397 291.3C163.96 291.349 162.554 290.868 161.448 289.949C160.341 289.031 159.61 287.738 159.394 286.316L159.363 286.109C159.238 285.288 159.289 284.451 159.511 283.652C159.734 282.852 160.123 282.11 160.654 281.472C161.185 280.834 161.845 280.316 162.59 279.952C163.336 279.588 164.15 279.386 164.98 279.36L247.494 276.746C248.929 276.7 250.331 277.182 251.435 278.101C252.539 279.019 253.267 280.31 253.483 281.73C253.608 282.549 253.558 283.385 253.337 284.184C253.115 284.982 252.727 285.725 252.198 286.363C251.668 287 251.01 287.519 250.266 287.884C249.522 288.249 248.709 288.453 247.881 288.481Z" fill="#F4F7FA"/>
</g>
</g>
<defs>
<linearGradient id="paint0_linear_1458_23842" x1="350.652" y1="44.4216" x2="-76.964" y2="87.8081" gradientUnits="userSpaceOnUse">
<stop stop-color="#7C4EAB"/>
<stop offset="1" stop-color="#DD51D4"/>
</linearGradient>
<linearGradient id="paint1_linear_1458_23842" x1="79487.4" y1="104514" x2="81384.5" y2="133277" gradientUnits="userSpaceOnUse">
<stop stop-color="#E38DDD"/>
<stop offset="1" stop-color="#9571F6"/>
</linearGradient>
<linearGradient id="paint2_linear_1458_23842" x1="-10.4881" y1="208.999" x2="31.7537" y2="279.837" gradientUnits="userSpaceOnUse">
<stop stop-color="#FF9085"/>
<stop offset="1" stop-color="#FB6FBB"/>
</linearGradient>
<linearGradient id="paint3_linear_1458_23842" x1="18650.4" y1="293430" x2="61830.7" y2="314231" gradientUnits="userSpaceOnUse">
<stop stop-color="#FF9085"/>
<stop offset="1" stop-color="#FB6FBB"/>
</linearGradient>
<linearGradient id="paint4_linear_1458_23842" x1="92834.4" y1="273373" x2="233109" y2="396618" gradientUnits="userSpaceOnUse">
<stop stop-color="#FF9085"/>
<stop offset="1" stop-color="#FB6FBB"/>
</linearGradient>
<linearGradient id="paint5_linear_1458_23842" x1="80078.2" y1="93601.9" x2="86051.3" y2="133719" gradientUnits="userSpaceOnUse">
<stop stop-color="#E38DDD"/>
<stop offset="1" stop-color="#9571F6"/>
</linearGradient>
<linearGradient id="paint6_linear_1458_23842" x1="143556" y1="327073" x2="279865" y2="432404" gradientUnits="userSpaceOnUse">
<stop stop-color="#FF9085"/>
<stop offset="1" stop-color="#FB6FBB"/>
</linearGradient>
<linearGradient id="paint7_linear_1458_23842" x1="9251.53" y1="19319.5" x2="9401.08" y2="19375.1" gradientUnits="userSpaceOnUse">
<stop stop-color="#E38DDD"/>
<stop offset="1" stop-color="#9571F6"/>
</linearGradient>
<linearGradient id="paint8_linear_1458_23842" x1="14207" y1="19328.7" x2="14357" y2="19384.4" gradientUnits="userSpaceOnUse">
<stop stop-color="#E38DDD"/>
<stop offset="1" stop-color="#9571F6"/>
</linearGradient>
<linearGradient id="paint9_linear_1458_23842" x1="120.688" y1="189.367" x2="390.354" y2="146.697" gradientUnits="userSpaceOnUse">
<stop stop-color="#444B8C"/>
<stop offset="1" stop-color="#26264F"/>
</linearGradient>
<linearGradient id="paint10_linear_1458_23842" x1="241.919" y1="84.6821" x2="-23.6501" y2="635.521" gradientUnits="userSpaceOnUse">
<stop stop-color="#FFC444"/>
<stop offset="1" stop-color="#F36F56"/>
</linearGradient>
<linearGradient id="paint11_linear_1458_23842" x1="277.361" y1="79.7531" x2="65.8869" y2="92.475" gradientUnits="userSpaceOnUse">
<stop stop-color="#7C4EAB"/>
<stop offset="1" stop-color="#DD51D4"/>
</linearGradient>
<linearGradient id="paint12_linear_1458_23842" x1="276.907" y1="77.8012" x2="75.5452" y2="90.2753" gradientUnits="userSpaceOnUse">
<stop stop-color="#7C4EAB"/>
<stop offset="1" stop-color="#DD51D4"/>
</linearGradient>
<linearGradient id="paint13_linear_1458_23842" x1="190619" y1="47469.2" x2="563784" y2="47469.2" gradientUnits="userSpaceOnUse">
<stop stop-color="#FF9085"/>
<stop offset="1" stop-color="#FB6FBB"/>
</linearGradient>
<clipPath id="clip0_1458_23842">
<rect width="352" height="362.035" fill="white"/>
</clipPath>
</defs>
</svg>
